<svg id="Layer_1" data-name="Layer 1" xmlns="http://www.w3.org/2000/svg" viewBox="0 0 1920 605"><defs><style>.cls-1{stroke:#a6a6a6;stroke-miterlimit:10;stroke-width:10px;}.cls-2{font-size:76.68px;letter-spacing:0.05em;}.cls-2,.cls-3{fill:#fff;font-family:Helvetica-Bold, Helvetica;font-weight:700;}.cls-3{font-size:257.93px;letter-spacing:0.05em;}.cls-4{fill:#4caf50;}.cls-5{fill:#fafafa;}</style></defs><title>mapArtboard 1</title><rect class="cls-1" x="16" y="25.26" width="1893" height="557.74" rx="57.65"/><text class="cls-2" transform="translate(496.96 196.36)">DOWNLOAD FOR</text><text class="cls-3" transform="translate(482.78 448.32)">Android</text><path class="cls-4" d="M127.19,243.28a22.89,22.89,0,0,0-22.89,22.89V373a22.89,22.89,0,0,0,45.78,0V266.17A22.89,22.89,0,0,0,127.19,243.28Z"/><path class="cls-4" d="M386.6,243.28a22.89,22.89,0,0,0-22.89,22.89V373a22.89,22.89,0,1,0,45.78,0V266.17A22.89,22.89,0,0,0,386.6,243.28Z"/><path class="cls-4" d="M340.82,243.28H173a7.62,7.62,0,0,0-7.63,7.63V373a38.15,38.15,0,0,0,30.52,37.39v54.17a22.89,22.89,0,0,0,45.78,0V411.13h30.51v53.41a22.89,22.89,0,1,0,45.78,0V410.37A38.15,38.15,0,0,0,348.45,373V250.91A7.62,7.62,0,0,0,340.82,243.28Z"/><path class="cls-4" d="M312.36,152.82,331,134.23a7.63,7.63,0,1,0-10.6-11l-.18.19-21.67,21.66a104.49,104.49,0,0,0-83.21,0l-21.67-21.68a7.63,7.63,0,0,0-10.79,10.79l18.59,18.6a80.52,80.52,0,0,0-36.09,67.57A7.63,7.63,0,0,0,173,228H340.82a7.63,7.63,0,0,0,7.63-7.63A80.52,80.52,0,0,0,312.36,152.82Z"/><circle class="cls-5" cx="218.75" cy="189.87" r="7.63"/><circle class="cls-5" cx="295.04" cy="189.87" r="7.63"/></svg>