<svg xmlns="http://www.w3.org/2000/svg" xmlns:xlink="http://www.w3.org/1999/xlink" viewBox="0 0 558 1080"><defs><style>.cls-1{fill:none;}.cls-2{isolation:isolate;}.cls-3{clip-path:url(#clip-path);}.cls-17,.cls-4{fill:#0071bc;}.cls-5{clip-path:url(#clip-path-2);}.cls-6{opacity:0.57;}.cls-7{clip-path:url(#clip-path-3);}.cls-8{fill:#29abe2;}.cls-9{clip-path:url(#clip-path-4);}.cls-10{fill:#36bce0;}.cls-11{clip-path:url(#clip-path-5);}.cls-12{opacity:0.89;}.cls-13{clip-path:url(#clip-path-6);}.cls-14{clip-path:url(#clip-path-7);}.cls-15{fill:aqua;}.cls-16{clip-path:url(#clip-path-8);}.cls-17{opacity:0.64;}</style><clipPath id="clip-path"><polygon class="cls-1" points="111.38 137.35 310.91 21.4 531.5 148.76 331.97 264.71 111.38 137.35"/></clipPath><clipPath id="clip-path-2"><polygon class="cls-1" points="109.05 596.82 308.59 480.86 529.18 608.22 329.64 724.18 109.05 596.82"/></clipPath><clipPath id="clip-path-3"><polygon class="cls-1" points="308.28 250.46 308.93 19.68 529.52 147.04 528.87 377.81 308.28 250.46"/></clipPath><clipPath id="clip-path-4"><polygon class="cls-1" points="308.28 480.19 308.93 249.41 529.52 376.77 528.87 607.55 308.28 480.19"/></clipPath><clipPath id="clip-path-5"><polygon class="cls-1" points="305.96 709.92 306.61 479.15 527.21 606.51 526.55 837.28 305.96 709.92"/></clipPath><clipPath id="clip-path-6"><polygon class="cls-1" points="305.96 939.66 306.61 708.88 527.21 836.24 526.55 1067.02 305.96 939.66"/></clipPath><clipPath id="clip-path-7"><polygon class="cls-1" points="15.75 413.23 90.36 126.92 340.9 234.36 266.3 520.67 15.75 413.23"/></clipPath><clipPath id="clip-path-8"><polygon class="cls-1" points="22.85 614.78 23.51 384 244.1 511.36 243.44 742.13 22.85 614.78"/></clipPath></defs><title>set upArtboard 3</title><g id="Layer_5" data-name="Layer 5"><g class="cls-2"><g class="cls-3"><polyline class="cls-4" points="531.5 148.76 310.91 21.4 111.38 137.35 331.97 264.71 531.5 148.76"/></g></g><g class="cls-2"><g class="cls-5"><polyline class="cls-4" points="529.18 608.22 308.59 480.86 109.05 596.82 329.64 724.18 529.18 608.22"/></g></g><g class="cls-6"><g class="cls-2"><g class="cls-7"><polyline class="cls-8" points="529.52 147.04 308.93 19.68 308.28 250.46 528.87 377.81 529.52 147.04"/></g></g></g><g class="cls-2"><g class="cls-9"><polyline class="cls-10" points="529.52 376.77 308.93 249.41 308.28 480.19 528.87 607.55 529.52 376.77"/></g></g><g class="cls-6"><g class="cls-2"><g class="cls-11"><polyline class="cls-8" points="527.21 606.51 306.61 479.15 305.96 709.92 526.55 837.28 527.21 606.51"/></g></g></g><g class="cls-12"><g class="cls-2"><g class="cls-13"><polyline class="cls-10" points="306.61 708.88 305.96 939.66 526.55 1067.02 527.2 838.13 306.61 708.88"/></g></g></g><g class="cls-2"><g class="cls-14"><polyline class="cls-15" points="112.1 136.25 23.05 385.23 244.55 511.34 333.6 262.36 112.1 136.25"/></g></g><g class="cls-2"><g class="cls-16"><polyline class="cls-8" points="244.1 511.36 23.51 384 22.85 614.78 243.44 742.13 244.1 511.36"/></g></g><polygon class="cls-17" points="331.5 723.4 244.82 742.36 22.7 613.7 110.27 593.24 331.5 723.4"/></g></svg>